<!--?xml version="1.0" encoding="UTF-8"?-->
<svg id="Camada_1" data-name="Camada 1" xmlns="http://www.w3.org/2000/svg" viewBox="0 0 239.95 51.52" width="200" height="auto" preserveAspectRatio="xMidYMid meet" style="max-width: 200px; display: block;">
  <defs>
    <style>
      .cls-1 { fill: #fff; }
      .cls-2 { fill: #ffc629; }
    </style>
  </defs>

  <path class="cls-2" d="m58.85,2.8c-.2-1-1.1-1.7-2.1-1.8-4-.5-11.7-.8-20-.9l-2.1,12h11.1c-3.9,11.8-14.8,26.1-22.1,32.5-.7.6-1.3,1-1.3,1l3.6-22.2h-9c2.4-7.8,7.2-16.4,12.2-23.4C18.35,0,7.75.3,3.55.9c-1.1.1-1.9.9-2.2,1.9C-.45,10.2-.45,27.8,1.35,35.5c.2,1,1.1,1.7,2.2,1.8,2.9.3,8.8.6,15.7.8l-1.1,12.1c-.1.9.9,1.6,1.8,1.2,1.6-.7,3.9-2,6.4-4.2,2.6-2.3,5.8-5.4,9.1-8.9,8.9,0,17.1-.3,21.2-.9,1.1-.2,1.9-1,2.1-2,1.9-10.4,1.8-25.3.1-32.6h0Z"></path>

  <g>
    <path class="cls-1" d="m81.35,30.3h-2.2l-1.9,7.6c-.1.4-.5.7-.9.7h-10.3c-.6,0-1-.5-.9-1.1L74.15,2.1c.1-.4.4-.6.8-.7,1.9-.2,4.6-.4,8.7-.4s6.6.1,8.7.4c.4,0,.7.3.8.7l9.1,35.4c.2.6-.3,1.1-.9,1.1h-10.4c-.4,0-.8-.3-.9-.7l-1.8-7.6h-6.9m3.5-17.1c-.3-1-.6-2.6-.9-3.7-.1-.3-.5-.3-.6,0-.2,1.1-.6,2.6-.8,3.7l-2.2,9.4h6.7l-2.2-9.4h0Z"></path>

    <path class="cls-1" d="m119.45,39.2c-3.9,0-7.2-.2-12.3-.6-.5,0-.8-.4-.8-.9V2.3c0-.5.4-.9.8-.9,5.4-.4,8.3-.6,12-.6,11.9,0,18.4,2.2,18.4,10.8v.4c0,3.2-.7,6-3.6,7.6,3.2,1.5,4.7,4.6,4.7,7.4v.5c0,9.7-7.9,11.7-19.2,11.7h0Zm7.3-27.1c0-3.1-2-3.6-6.2-3.6-1.1,0-1.8,0-2.9.1v7.8h3.8c4.4,0,5.3-1.3,5.3-3.9,0,0,0-.4,0-.4Zm.7,14.7c-.1-2.7-1.2-4-5.3-4h-4.5v8.5h3.5c4.4,0,6.3-.7,6.3-4v-.5Z"></path>

    <path class="cls-1" d="m143.75,37.7V2.3c0-.5.4-.9.9-.9h25.1c.5,0,.9.4.9.9v6.1c0,.5-.4.9-.9.9h-14.6v6.7h12.3c.5,0,.9.4.9.9v5.6c0,.5-.4.9-.9.9h-12.3v7.4h14.6c.5,0,.9.4.9.9v6.1c0,.5-.4.9-.9.9h-25.1c-.5-.1-.9-.5-.9-1h0Z"></path>

    <path class="cls-1" d="m209.65,37.3l-7.1-13.6c3.2-2,5.2-4.9,5.2-10.1v-.3c0-10.6-8.4-12.4-18.1-12.4-5.1,0-9,.3-12.8.5-.5,0-.8.4-.8.9v35.4c0,.5.4.9.9.9h9.4c.5,0,.9-.4.9-.9v-11.9h4.6l6.7,12.3c.2.3.5.5.8.5h9.6c.6,0,1-.7.7-1.3h0Zm-19.5-19h-3.1v-9.3h2.9c4.7,0,6.4.9,6.4,4.4v.3c.1,3.4-1.6,4.6-6.2,4.6h0Z"></path>

    <path class="cls-1" d="m230.75,9.3v28.4c0,.5-.4.9-.9.9h-10c-.5,0-.9-.4-.9-.9V9.3h-8.4c-.5,0-.9-.4-.9-.9V2.3c0-.5.4-.9.9-.9h28.5c.5,0,.9.4.9.9v6.1c0,.5-.4.9-.9.9h-8.3Z"></path>
  </g>
</svg>
